<?xml version="1.0" encoding="utf-8" standalone="no"?>
<!DOCTYPE svg PUBLIC "-//W3C//DTD SVG 1.1//EN"
  "http://www.w3.org/Graphics/SVG/1.1/DTD/svg11.dtd">
<svg xmlns:xlink="http://www.w3.org/1999/xlink" width="460.8pt" height="345.6pt" viewBox="0 0 460.8 345.6" xmlns="http://www.w3.org/2000/svg" version="1.1">
 <metadata>
  <rdf:RDF xmlns:dc="http://purl.org/dc/elements/1.1/" xmlns:cc="http://creativecommons.org/ns#" xmlns:rdf="http://www.w3.org/1999/02/22-rdf-syntax-ns#">
   <cc:Work>
    <dc:type rdf:resource="http://purl.org/dc/dcmitype/StillImage"/>
    <dc:date>2022-10-18T21:30:20.270464</dc:date>
    <dc:format>image/svg+xml</dc:format>
    <dc:creator>
     <cc:Agent>
      <dc:title>Matplotlib v3.5.2, https://matplotlib.org/</dc:title>
     </cc:Agent>
    </dc:creator>
   </cc:Work>
  </rdf:RDF>
 </metadata>
 <defs>
  <style type="text/css">*{stroke-linejoin: round; stroke-linecap: butt}</style>
 </defs>
 <g id="figure_1">
  <g id="patch_1">
   <path d="M 0 345.6 
L 460.8 345.6 
L 460.8 0 
L 0 0 
z
" style="fill: #ffffff"/>
  </g>
  <g id="axes_1">
   <g id="patch_2">
    <path d="M 57.6 307.584 
L 414.72 307.584 
L 414.72 41.472 
L 57.6 41.472 
z
" style="fill: #ffffff"/>
   </g>
   <g id="matplotlib.axis_1">
    <g id="xtick_1">
     <g id="line2d_1">
      <path d="M 70.989536 307.584 
L 70.989536 41.472 
" clip-path="url(#p1cabe2cf61)" style="fill: none; stroke-dasharray: 0.8,1.32; stroke-dashoffset: 0; stroke: #808080; stroke-opacity: 0.2; stroke-width: 0.8"/>
     </g>
     <g id="line2d_2">
      <defs>
       <path id="ma162b91e6a" d="M 0 0 
L 0 3.5 
" style="stroke: #000000; stroke-width: 0.8"/>
      </defs>
      <g>
       <use xlink:href="#ma162b91e6a" x="70.989536" y="307.584" style="stroke: #000000; stroke-width: 0.8"/>
      </g>
     </g>
     <g id="text_1">
      <!-- 0 -->
      <g transform="translate(67.808286 322.182437)scale(0.1 -0.1)">
       <defs>
        <path id="DejaVuSans-30" d="M 2034 4250 
Q 1547 4250 1301 3770 
Q 1056 3291 1056 2328 
Q 1056 1369 1301 889 
Q 1547 409 2034 409 
Q 2525 409 2770 889 
Q 3016 1369 3016 2328 
Q 3016 3291 2770 3770 
Q 2525 4250 2034 4250 
z
M 2034 4750 
Q 2819 4750 3233 4129 
Q 3647 3509 3647 2328 
Q 3647 1150 3233 529 
Q 2819 -91 2034 -91 
Q 1250 -91 836 529 
Q 422 1150 422 2328 
Q 422 3509 836 4129 
Q 1250 4750 2034 4750 
z
" transform="scale(0.015625)"/>
       </defs>
       <use xlink:href="#DejaVuSans-30"/>
      </g>
     </g>
    </g>
    <g id="xtick_2">
     <g id="line2d_3">
      <path d="M 136.014123 307.584 
L 136.014123 41.472 
" clip-path="url(#p1cabe2cf61)" style="fill: none; stroke-dasharray: 0.8,1.32; stroke-dashoffset: 0; stroke: #808080; stroke-opacity: 0.2; stroke-width: 0.8"/>
     </g>
     <g id="line2d_4">
      <g>
       <use xlink:href="#ma162b91e6a" x="136.014123" y="307.584" style="stroke: #000000; stroke-width: 0.8"/>
      </g>
     </g>
     <g id="text_2">
      <!-- 10 -->
      <g transform="translate(129.651623 322.182437)scale(0.1 -0.1)">
       <defs>
        <path id="DejaVuSans-31" d="M 794 531 
L 1825 531 
L 1825 4091 
L 703 3866 
L 703 4441 
L 1819 4666 
L 2450 4666 
L 2450 531 
L 3481 531 
L 3481 0 
L 794 0 
L 794 531 
z
" transform="scale(0.015625)"/>
       </defs>
       <use xlink:href="#DejaVuSans-31"/>
       <use xlink:href="#DejaVuSans-30" x="63.623047"/>
      </g>
     </g>
    </g>
    <g id="xtick_3">
     <g id="line2d_5">
      <path d="M 201.03871 307.584 
L 201.03871 41.472 
" clip-path="url(#p1cabe2cf61)" style="fill: none; stroke-dasharray: 0.8,1.32; stroke-dashoffset: 0; stroke: #808080; stroke-opacity: 0.2; stroke-width: 0.8"/>
     </g>
     <g id="line2d_6">
      <g>
       <use xlink:href="#ma162b91e6a" x="201.03871" y="307.584" style="stroke: #000000; stroke-width: 0.8"/>
      </g>
     </g>
     <g id="text_3">
      <!-- 20 -->
      <g transform="translate(194.67621 322.182437)scale(0.1 -0.1)">
       <defs>
        <path id="DejaVuSans-32" d="M 1228 531 
L 3431 531 
L 3431 0 
L 469 0 
L 469 531 
Q 828 903 1448 1529 
Q 2069 2156 2228 2338 
Q 2531 2678 2651 2914 
Q 2772 3150 2772 3378 
Q 2772 3750 2511 3984 
Q 2250 4219 1831 4219 
Q 1534 4219 1204 4116 
Q 875 4013 500 3803 
L 500 4441 
Q 881 4594 1212 4672 
Q 1544 4750 1819 4750 
Q 2544 4750 2975 4387 
Q 3406 4025 3406 3419 
Q 3406 3131 3298 2873 
Q 3191 2616 2906 2266 
Q 2828 2175 2409 1742 
Q 1991 1309 1228 531 
z
" transform="scale(0.015625)"/>
       </defs>
       <use xlink:href="#DejaVuSans-32"/>
       <use xlink:href="#DejaVuSans-30" x="63.623047"/>
      </g>
     </g>
    </g>
    <g id="xtick_4">
     <g id="line2d_7">
      <path d="M 266.063297 307.584 
L 266.063297 41.472 
" clip-path="url(#p1cabe2cf61)" style="fill: none; stroke-dasharray: 0.8,1.32; stroke-dashoffset: 0; stroke: #808080; stroke-opacity: 0.2; stroke-width: 0.8"/>
     </g>
     <g id="line2d_8">
      <g>
       <use xlink:href="#ma162b91e6a" x="266.063297" y="307.584" style="stroke: #000000; stroke-width: 0.8"/>
      </g>
     </g>
     <g id="text_4">
      <!-- 30 -->
      <g transform="translate(259.700797 322.182437)scale(0.1 -0.1)">
       <defs>
        <path id="DejaVuSans-33" d="M 2597 2516 
Q 3050 2419 3304 2112 
Q 3559 1806 3559 1356 
Q 3559 666 3084 287 
Q 2609 -91 1734 -91 
Q 1441 -91 1130 -33 
Q 819 25 488 141 
L 488 750 
Q 750 597 1062 519 
Q 1375 441 1716 441 
Q 2309 441 2620 675 
Q 2931 909 2931 1356 
Q 2931 1769 2642 2001 
Q 2353 2234 1838 2234 
L 1294 2234 
L 1294 2753 
L 1863 2753 
Q 2328 2753 2575 2939 
Q 2822 3125 2822 3475 
Q 2822 3834 2567 4026 
Q 2313 4219 1838 4219 
Q 1578 4219 1281 4162 
Q 984 4106 628 3988 
L 628 4550 
Q 988 4650 1302 4700 
Q 1616 4750 1894 4750 
Q 2613 4750 3031 4423 
Q 3450 4097 3450 3541 
Q 3450 3153 3228 2886 
Q 3006 2619 2597 2516 
z
" transform="scale(0.015625)"/>
       </defs>
       <use xlink:href="#DejaVuSans-33"/>
       <use xlink:href="#DejaVuSans-30" x="63.623047"/>
      </g>
     </g>
    </g>
    <g id="xtick_5">
     <g id="line2d_9">
      <path d="M 331.087884 307.584 
L 331.087884 41.472 
" clip-path="url(#p1cabe2cf61)" style="fill: none; stroke-dasharray: 0.8,1.32; stroke-dashoffset: 0; stroke: #808080; stroke-opacity: 0.2; stroke-width: 0.8"/>
     </g>
     <g id="line2d_10">
      <g>
       <use xlink:href="#ma162b91e6a" x="331.087884" y="307.584" style="stroke: #000000; stroke-width: 0.8"/>
      </g>
     </g>
     <g id="text_5">
      <!-- 40 -->
      <g transform="translate(324.725384 322.182437)scale(0.1 -0.1)">
       <defs>
        <path id="DejaVuSans-34" d="M 2419 4116 
L 825 1625 
L 2419 1625 
L 2419 4116 
z
M 2253 4666 
L 3047 4666 
L 3047 1625 
L 3713 1625 
L 3713 1100 
L 3047 1100 
L 3047 0 
L 2419 0 
L 2419 1100 
L 313 1100 
L 313 1709 
L 2253 4666 
z
" transform="scale(0.015625)"/>
       </defs>
       <use xlink:href="#DejaVuSans-34"/>
       <use xlink:href="#DejaVuSans-30" x="63.623047"/>
      </g>
     </g>
    </g>
    <g id="xtick_6">
     <g id="line2d_11">
      <path d="M 396.112471 307.584 
L 396.112471 41.472 
" clip-path="url(#p1cabe2cf61)" style="fill: none; stroke-dasharray: 0.8,1.32; stroke-dashoffset: 0; stroke: #808080; stroke-opacity: 0.2; stroke-width: 0.8"/>
     </g>
     <g id="line2d_12">
      <g>
       <use xlink:href="#ma162b91e6a" x="396.112471" y="307.584" style="stroke: #000000; stroke-width: 0.8"/>
      </g>
     </g>
     <g id="text_6">
      <!-- 50 -->
      <g transform="translate(389.749971 322.182437)scale(0.1 -0.1)">
       <defs>
        <path id="DejaVuSans-35" d="M 691 4666 
L 3169 4666 
L 3169 4134 
L 1269 4134 
L 1269 2991 
Q 1406 3038 1543 3061 
Q 1681 3084 1819 3084 
Q 2600 3084 3056 2656 
Q 3513 2228 3513 1497 
Q 3513 744 3044 326 
Q 2575 -91 1722 -91 
Q 1428 -91 1123 -41 
Q 819 9 494 109 
L 494 744 
Q 775 591 1075 516 
Q 1375 441 1709 441 
Q 2250 441 2565 725 
Q 2881 1009 2881 1497 
Q 2881 1984 2565 2268 
Q 2250 2553 1709 2553 
Q 1456 2553 1204 2497 
Q 953 2441 691 2322 
L 691 4666 
z
" transform="scale(0.015625)"/>
       </defs>
       <use xlink:href="#DejaVuSans-35"/>
       <use xlink:href="#DejaVuSans-30" x="63.623047"/>
      </g>
     </g>
    </g>
    <g id="text_7">
     <!-- Tiempo [s] -->
     <g transform="translate(209.5975 335.860562)scale(0.1 -0.1)">
      <defs>
       <path id="DejaVuSans-54" d="M -19 4666 
L 3928 4666 
L 3928 4134 
L 2272 4134 
L 2272 0 
L 1638 0 
L 1638 4134 
L -19 4134 
L -19 4666 
z
" transform="scale(0.015625)"/>
       <path id="DejaVuSans-69" d="M 603 3500 
L 1178 3500 
L 1178 0 
L 603 0 
L 603 3500 
z
M 603 4863 
L 1178 4863 
L 1178 4134 
L 603 4134 
L 603 4863 
z
" transform="scale(0.015625)"/>
       <path id="DejaVuSans-65" d="M 3597 1894 
L 3597 1613 
L 953 1613 
Q 991 1019 1311 708 
Q 1631 397 2203 397 
Q 2534 397 2845 478 
Q 3156 559 3463 722 
L 3463 178 
Q 3153 47 2828 -22 
Q 2503 -91 2169 -91 
Q 1331 -91 842 396 
Q 353 884 353 1716 
Q 353 2575 817 3079 
Q 1281 3584 2069 3584 
Q 2775 3584 3186 3129 
Q 3597 2675 3597 1894 
z
M 3022 2063 
Q 3016 2534 2758 2815 
Q 2500 3097 2075 3097 
Q 1594 3097 1305 2825 
Q 1016 2553 972 2059 
L 3022 2063 
z
" transform="scale(0.015625)"/>
       <path id="DejaVuSans-6d" d="M 3328 2828 
Q 3544 3216 3844 3400 
Q 4144 3584 4550 3584 
Q 5097 3584 5394 3201 
Q 5691 2819 5691 2113 
L 5691 0 
L 5113 0 
L 5113 2094 
Q 5113 2597 4934 2840 
Q 4756 3084 4391 3084 
Q 3944 3084 3684 2787 
Q 3425 2491 3425 1978 
L 3425 0 
L 2847 0 
L 2847 2094 
Q 2847 2600 2669 2842 
Q 2491 3084 2119 3084 
Q 1678 3084 1418 2786 
Q 1159 2488 1159 1978 
L 1159 0 
L 581 0 
L 581 3500 
L 1159 3500 
L 1159 2956 
Q 1356 3278 1631 3431 
Q 1906 3584 2284 3584 
Q 2666 3584 2933 3390 
Q 3200 3197 3328 2828 
z
" transform="scale(0.015625)"/>
       <path id="DejaVuSans-70" d="M 1159 525 
L 1159 -1331 
L 581 -1331 
L 581 3500 
L 1159 3500 
L 1159 2969 
Q 1341 3281 1617 3432 
Q 1894 3584 2278 3584 
Q 2916 3584 3314 3078 
Q 3713 2572 3713 1747 
Q 3713 922 3314 415 
Q 2916 -91 2278 -91 
Q 1894 -91 1617 61 
Q 1341 213 1159 525 
z
M 3116 1747 
Q 3116 2381 2855 2742 
Q 2594 3103 2138 3103 
Q 1681 3103 1420 2742 
Q 1159 2381 1159 1747 
Q 1159 1113 1420 752 
Q 1681 391 2138 391 
Q 2594 391 2855 752 
Q 3116 1113 3116 1747 
z
" transform="scale(0.015625)"/>
       <path id="DejaVuSans-6f" d="M 1959 3097 
Q 1497 3097 1228 2736 
Q 959 2375 959 1747 
Q 959 1119 1226 758 
Q 1494 397 1959 397 
Q 2419 397 2687 759 
Q 2956 1122 2956 1747 
Q 2956 2369 2687 2733 
Q 2419 3097 1959 3097 
z
M 1959 3584 
Q 2709 3584 3137 3096 
Q 3566 2609 3566 1747 
Q 3566 888 3137 398 
Q 2709 -91 1959 -91 
Q 1206 -91 779 398 
Q 353 888 353 1747 
Q 353 2609 779 3096 
Q 1206 3584 1959 3584 
z
" transform="scale(0.015625)"/>
       <path id="DejaVuSans-20" transform="scale(0.015625)"/>
       <path id="DejaVuSans-5b" d="M 550 4863 
L 1875 4863 
L 1875 4416 
L 1125 4416 
L 1125 -397 
L 1875 -397 
L 1875 -844 
L 550 -844 
L 550 4863 
z
" transform="scale(0.015625)"/>
       <path id="DejaVuSans-73" d="M 2834 3397 
L 2834 2853 
Q 2591 2978 2328 3040 
Q 2066 3103 1784 3103 
Q 1356 3103 1142 2972 
Q 928 2841 928 2578 
Q 928 2378 1081 2264 
Q 1234 2150 1697 2047 
L 1894 2003 
Q 2506 1872 2764 1633 
Q 3022 1394 3022 966 
Q 3022 478 2636 193 
Q 2250 -91 1575 -91 
Q 1294 -91 989 -36 
Q 684 19 347 128 
L 347 722 
Q 666 556 975 473 
Q 1284 391 1588 391 
Q 1994 391 2212 530 
Q 2431 669 2431 922 
Q 2431 1156 2273 1281 
Q 2116 1406 1581 1522 
L 1381 1569 
Q 847 1681 609 1914 
Q 372 2147 372 2553 
Q 372 3047 722 3315 
Q 1072 3584 1716 3584 
Q 2034 3584 2315 3537 
Q 2597 3491 2834 3397 
z
" transform="scale(0.015625)"/>
       <path id="DejaVuSans-5d" d="M 1947 4863 
L 1947 -844 
L 622 -844 
L 622 -397 
L 1369 -397 
L 1369 4416 
L 622 4416 
L 622 4863 
L 1947 4863 
z
" transform="scale(0.015625)"/>
      </defs>
      <use xlink:href="#DejaVuSans-54"/>
      <use xlink:href="#DejaVuSans-69" x="57.958984"/>
      <use xlink:href="#DejaVuSans-65" x="85.742188"/>
      <use xlink:href="#DejaVuSans-6d" x="147.265625"/>
      <use xlink:href="#DejaVuSans-70" x="244.677734"/>
      <use xlink:href="#DejaVuSans-6f" x="308.154297"/>
      <use xlink:href="#DejaVuSans-20" x="369.335938"/>
      <use xlink:href="#DejaVuSans-5b" x="401.123047"/>
      <use xlink:href="#DejaVuSans-73" x="440.136719"/>
      <use xlink:href="#DejaVuSans-5d" x="492.236328"/>
     </g>
    </g>
   </g>
   <g id="matplotlib.axis_2">
    <g id="ytick_1">
     <g id="line2d_13">
      <path d="M 57.6 257.228564 
L 414.72 257.228564 
" clip-path="url(#p1cabe2cf61)" style="fill: none; stroke-dasharray: 0.8,1.32; stroke-dashoffset: 0; stroke: #808080; stroke-opacity: 0.2; stroke-width: 0.8"/>
     </g>
     <g id="line2d_14">
      <defs>
       <path id="m8d72f930e5" d="M 0 0 
L -3.5 0 
" style="stroke: #000000; stroke-width: 0.8"/>
      </defs>
      <g>
       <use xlink:href="#m8d72f930e5" x="57.6" y="257.228564" style="stroke: #000000; stroke-width: 0.8"/>
      </g>
     </g>
     <g id="text_8">
      <!-- 1 -->
      <g transform="translate(44.2375 261.027782)scale(0.1 -0.1)">
       <use xlink:href="#DejaVuSans-31"/>
      </g>
     </g>
    </g>
    <g id="ytick_2">
     <g id="line2d_15">
      <path d="M 57.6 202.271313 
L 414.72 202.271313 
" clip-path="url(#p1cabe2cf61)" style="fill: none; stroke-dasharray: 0.8,1.32; stroke-dashoffset: 0; stroke: #808080; stroke-opacity: 0.2; stroke-width: 0.8"/>
     </g>
     <g id="line2d_16">
      <g>
       <use xlink:href="#m8d72f930e5" x="57.6" y="202.271313" style="stroke: #000000; stroke-width: 0.8"/>
      </g>
     </g>
     <g id="text_9">
      <!-- 2 -->
      <g transform="translate(44.2375 206.070532)scale(0.1 -0.1)">
       <use xlink:href="#DejaVuSans-32"/>
      </g>
     </g>
    </g>
    <g id="ytick_3">
     <g id="line2d_17">
      <path d="M 57.6 147.314063 
L 414.72 147.314063 
" clip-path="url(#p1cabe2cf61)" style="fill: none; stroke-dasharray: 0.8,1.32; stroke-dashoffset: 0; stroke: #808080; stroke-opacity: 0.2; stroke-width: 0.8"/>
     </g>
     <g id="line2d_18">
      <g>
       <use xlink:href="#m8d72f930e5" x="57.6" y="147.314063" style="stroke: #000000; stroke-width: 0.8"/>
      </g>
     </g>
     <g id="text_10">
      <!-- 3 -->
      <g transform="translate(44.2375 151.113281)scale(0.1 -0.1)">
       <use xlink:href="#DejaVuSans-33"/>
      </g>
     </g>
    </g>
    <g id="ytick_4">
     <g id="line2d_19">
      <path d="M 57.6 92.356812 
L 414.72 92.356812 
" clip-path="url(#p1cabe2cf61)" style="fill: none; stroke-dasharray: 0.8,1.32; stroke-dashoffset: 0; stroke: #808080; stroke-opacity: 0.2; stroke-width: 0.8"/>
     </g>
     <g id="line2d_20">
      <g>
       <use xlink:href="#m8d72f930e5" x="57.6" y="92.356812" style="stroke: #000000; stroke-width: 0.8"/>
      </g>
     </g>
     <g id="text_11">
      <!-- 4 -->
      <g transform="translate(44.2375 96.156031)scale(0.1 -0.1)">
       <use xlink:href="#DejaVuSans-34"/>
      </g>
     </g>
    </g>
    <g id="text_12">
     <!-- Distancia [m] -->
     <g transform="translate(38.157812 208.128)rotate(-90)scale(0.1 -0.1)">
      <defs>
       <path id="DejaVuSans-44" d="M 1259 4147 
L 1259 519 
L 2022 519 
Q 2988 519 3436 956 
Q 3884 1394 3884 2338 
Q 3884 3275 3436 3711 
Q 2988 4147 2022 4147 
L 1259 4147 
z
M 628 4666 
L 1925 4666 
Q 3281 4666 3915 4102 
Q 4550 3538 4550 2338 
Q 4550 1131 3912 565 
Q 3275 0 1925 0 
L 628 0 
L 628 4666 
z
" transform="scale(0.015625)"/>
       <path id="DejaVuSans-74" d="M 1172 4494 
L 1172 3500 
L 2356 3500 
L 2356 3053 
L 1172 3053 
L 1172 1153 
Q 1172 725 1289 603 
Q 1406 481 1766 481 
L 2356 481 
L 2356 0 
L 1766 0 
Q 1100 0 847 248 
Q 594 497 594 1153 
L 594 3053 
L 172 3053 
L 172 3500 
L 594 3500 
L 594 4494 
L 1172 4494 
z
" transform="scale(0.015625)"/>
       <path id="DejaVuSans-61" d="M 2194 1759 
Q 1497 1759 1228 1600 
Q 959 1441 959 1056 
Q 959 750 1161 570 
Q 1363 391 1709 391 
Q 2188 391 2477 730 
Q 2766 1069 2766 1631 
L 2766 1759 
L 2194 1759 
z
M 3341 1997 
L 3341 0 
L 2766 0 
L 2766 531 
Q 2569 213 2275 61 
Q 1981 -91 1556 -91 
Q 1019 -91 701 211 
Q 384 513 384 1019 
Q 384 1609 779 1909 
Q 1175 2209 1959 2209 
L 2766 2209 
L 2766 2266 
Q 2766 2663 2505 2880 
Q 2244 3097 1772 3097 
Q 1472 3097 1187 3025 
Q 903 2953 641 2809 
L 641 3341 
Q 956 3463 1253 3523 
Q 1550 3584 1831 3584 
Q 2591 3584 2966 3190 
Q 3341 2797 3341 1997 
z
" transform="scale(0.015625)"/>
       <path id="DejaVuSans-6e" d="M 3513 2113 
L 3513 0 
L 2938 0 
L 2938 2094 
Q 2938 2591 2744 2837 
Q 2550 3084 2163 3084 
Q 1697 3084 1428 2787 
Q 1159 2491 1159 1978 
L 1159 0 
L 581 0 
L 581 3500 
L 1159 3500 
L 1159 2956 
Q 1366 3272 1645 3428 
Q 1925 3584 2291 3584 
Q 2894 3584 3203 3211 
Q 3513 2838 3513 2113 
z
" transform="scale(0.015625)"/>
       <path id="DejaVuSans-63" d="M 3122 3366 
L 3122 2828 
Q 2878 2963 2633 3030 
Q 2388 3097 2138 3097 
Q 1578 3097 1268 2742 
Q 959 2388 959 1747 
Q 959 1106 1268 751 
Q 1578 397 2138 397 
Q 2388 397 2633 464 
Q 2878 531 3122 666 
L 3122 134 
Q 2881 22 2623 -34 
Q 2366 -91 2075 -91 
Q 1284 -91 818 406 
Q 353 903 353 1747 
Q 353 2603 823 3093 
Q 1294 3584 2113 3584 
Q 2378 3584 2631 3529 
Q 2884 3475 3122 3366 
z
" transform="scale(0.015625)"/>
      </defs>
      <use xlink:href="#DejaVuSans-44"/>
      <use xlink:href="#DejaVuSans-69" x="77.001953"/>
      <use xlink:href="#DejaVuSans-73" x="104.785156"/>
      <use xlink:href="#DejaVuSans-74" x="156.884766"/>
      <use xlink:href="#DejaVuSans-61" x="196.09375"/>
      <use xlink:href="#DejaVuSans-6e" x="257.373047"/>
      <use xlink:href="#DejaVuSans-63" x="320.751953"/>
      <use xlink:href="#DejaVuSans-69" x="375.732422"/>
      <use xlink:href="#DejaVuSans-61" x="403.515625"/>
      <use xlink:href="#DejaVuSans-20" x="464.794922"/>
      <use xlink:href="#DejaVuSans-5b" x="496.582031"/>
      <use xlink:href="#DejaVuSans-6d" x="535.595703"/>
      <use xlink:href="#DejaVuSans-5d" x="633.007812"/>
     </g>
    </g>
   </g>
   <g id="line2d_21">
    <path d="M 366.114544 291.217806 
" clip-path="url(#p1cabe2cf61)" style="fill: none; stroke: #1f77b4; stroke-width: 1.5; stroke-linecap: square"/>
   </g>
   <g id="line2d_22">
    <path d="M 73.832727 156.427776 
L 74.358991 154.898163 
L 74.745624 155.770152 
L 74.836604 156.64214 
L 75.758754 156.684884 
L 75.882335 155.770152 
L 76.697153 156.002682 
L 76.762135 154.766449 
L 77.716254 153.566518 
L 77.86588 154.151569 
L 78.636005 154.623102 
L 78.776986 154.4048 
L 79.525112 154.57071 
L 79.653466 154.086078 
L 80.678222 154.893797 
L 81.469084 154.793378 
L 81.573512 152.413882 
L 82.562893 154.112274 
L 82.699358 154.627468 
L 83.658367 154.80211 
L 85.501316 154.863235 
L 85.618307 154.858869 
L 86.431188 154.199595 
L 86.580363 154.522683 
L 87.712731 154.885065 
L 88.397109 154.444094 
L 89.680047 154.898163 
L 90.619792 154.82394 
L 91.39226 153.963829 
L 92.310016 154.365505 
L 92.375112 152.776264 
L 93.396442 154.885065 
L 94.266581 154.767182 
L 94.390139 153.981293 
L 95.468124 154.343675 
L 95.611097 154.784646 
L 96.422762 154.898163 
L 96.559275 154.09481 
L 97.579064 154.889431 
L 98.148673 154.889431 
L 98.263576 153.867776 
L 99.206603 154.898163 
L 109.021027 154.898163 
L 109.163995 154.771548 
L 110.10836 154.898163 
L 111.082453 154.898163 
L 111.8837 155.061661 
L 112.026676 154.898163 
L 112.863333 154.898163 
L 113.911367 155.072561 
L 114.054333 154.898163 
L 114.89675 155.079827 
L 115.026833 154.898163 
L 115.940272 155.083461 
L 116.953646 155.079827 
L 117.689877 156.206146 
L 117.835986 155.999049 
L 118.789715 156.496809 
L 120.045426 158.476949 
L 120.75565 158.498749 
L 121.957306 158.080921 
L 122.747841 162.818724 
L 123.839815 162.865957 
L 124.060758 165.41289 
L 124.822508 163.556281 
L 125.08895 162.560761 
L 125.800485 166.739039 
L 126.807795 164.878797 
L 126.911746 167.327631 
L 127.737562 166.818971 
L 128.796955 167.618294 
L 129.00491 167.948923 
L 129.684384 167.705492 
L 130.694237 167.86899 
L 130.850199 167.491129 
L 131.68638 167.872624 
L 131.822821 167.749092 
L 132.576931 167.887157 
L 132.674535 167.531095 
L 133.810115 167.959822 
L 135.58969 167.927123 
L 135.700165 167.654626 
L 136.540012 167.934389 
L 137.601418 167.898057 
L 138.532221 167.977989 
L 138.687946 167.86899 
L 140.658165 168.179651 
L 141.353316 167.977989 
L 141.502764 168.159928 
L 143.472693 168.036579 
L 144.137627 168.252439 
L 144.242206 168.446713 
L 145.21625 168.866098 
L 145.333238 170.882846 
L 146.350551 170.633065 
L 146.526004 168.96786 
L 147.154404 168.156844 
L 148.23218 167.977989 
L 148.303671 168.258607 
L 149.14301 168.122923 
L 149.298981 168.77667 
L 150.332117 167.996491 
L 151.098141 169.350241 
L 152.019465 170.016323 
L 152.129936 169.581519 
L 153.068166 168.431295 
L 153.159054 170.774916 
L 154.180485 172.477125 
L 154.342949 173.454662 
L 154.942023 173.516336 
L 156.089427 177.596088 
L 156.281231 176.331766 
L 157.034901 177.787278 
L 157.158366 176.757318 
L 158.068687 178.256002 
L 158.224656 177.034852 
L 158.970843 178.471862 
L 160.119937 178.780233 
L 160.2759 176.871415 
L 160.941854 178.690806 
L 162.008416 178.962172 
L 162.893653 178.844991 
L 163.101605 178.601378 
L 163.858009 178.585959 
L 165.121922 179.079353 
L 167.073758 179.087276 
L 167.759425 179.235172 
L 168.875406 181.693945 
L 169.031367 183.141213 
L 169.754938 184.377202 
L 169.858908 183.447569 
L 170.799123 186.175724 
L 172.531876 188.378319 
L 172.740476 188.515651 
L 173.742787 188.386242 
L 174.67473 188.452267 
L 174.837195 188.586958 
L 176.602877 188.586958 
L 177.584192 188.462831 
L 177.753155 188.586958 
L 178.414052 188.449626 
L 179.55312 188.607567 
L 179.832561 189.216676 
L 180.300815 189.205227 
L 180.359306 189.319721 
L 181.417625 192.834695 
L 181.508606 192.649214 
L 182.440661 194.313961 
L 182.58362 195.877953 
L 183.261054 196.070303 
L 183.345526 195.069623 
L 184.424478 196.354249 
L 185.25772 196.244335 
L 185.3747 195.843605 
L 186.415196 195.916881 
L 186.532153 196.654224 
L 187.422759 196.830545 
L 187.533251 196.686283 
L 188.203363 196.235175 
L 188.35935 196.718341 
L 189.189721 197.333587 
L 190.317078 197.230191 
L 191.229505 196.932537 
L 192.22483 200.158268 
L 192.41979 199.05836 
L 193.191877 200.510239 
L 194.311351 202.912038 
L 195.10466 203.963951 
L 197.343972 204.029945 
L 198.127356 204.492624 
L 198.283317 204.029945 
L 198.979556 204.630811 
L 199.116008 204.029945 
L 202.98758 204.044112 
L 203.861916 205.430683 
L 204.011202 205.455475 
L 204.860067 204.665678 
L 205.885444 208.866366 
L 206.041598 208.138305 
L 206.76053 209.202583 
L 207.785315 210.031338 
L 207.86993 209.165395 
L 208.865737 209.643523 
L 209.021696 210.079151 
L 209.810539 209.965817 
L 209.979517 210.180089 
L 210.798087 210.404986 
L 215.80039 210.404986 
L 216.491053 211.609435 
L 216.581918 212.301286 
L 217.566697 212.867346 
L 218.844232 215.038814 
L 219.439253 215.001076 
L 219.582223 215.235362 
L 220.597872 215.960233 
L 220.740848 215.911489 
L 221.451815 215.883186 
L 221.556486 215.710223 
L 224.567436 216.065583 
L 230.458362 216.065583 
L 231.244877 216.415294 
L 232.354227 217.503753 
L 232.497199 216.731298 
L 233.250631 217.701782 
L 234.426911 220.082347 
L 234.667367 219.880105 
L 235.41535 221.117437 
L 237.320339 221.12165 
L 238.14782 221.512488 
L 238.232428 221.197537 
L 239.141407 222.194522 
L 240.386305 224.68143 
L 241.036183 225.347328 
L 242.082535 225.607078 
L 244.012599 225.683102 
L 244.889927 225.683102 
L 245.806267 225.959033 
L 245.936224 227.450893 
L 246.86927 228.735519 
L 247.85601 229.41905 
L 249.012072 229.804896 
L 250.705308 229.899361 
L 251.827657 231.199039 
L 252.016134 230.572038 
L 252.811933 231.540568 
L 253.013323 232.480031 
L 253.766702 233.208764 
L 254.007161 233.121566 
L 254.861608 233.257554 
L 255.037073 233.423647 
L 256.651278 233.541989 
L 257.843003 233.553346 
L 258.770124 233.917744 
L 259.665894 236.658767 
L 259.873845 236.356838 
L 260.456354 236.729753 
L 260.553972 236.926622 
L 262.640137 236.949338 
L 263.671716 237.060718 
L 264.424687 237.798611 
L 265.628155 239.323125 
L 266.472406 240.046225 
L 266.582719 239.886116 
L 267.675115 240.081901 
L 268.311646 240.416057 
L 268.461136 241.208159 
L 269.516836 241.747015 
L 269.672813 241.971133 
L 270.536929 242.853854 
L 270.660411 242.730871 
L 271.617606 242.994636 
L 272.384076 242.994636 
L 273.356708 243.896667 
L 273.473722 243.40425 
L 274.571673 245.631118 
L 275.496358 245.632584 
L 276.088507 247.106812 
L 276.172989 247.640584 
L 277.34613 248.10566 
L 278.298755 249.656645 
L 279.304177 250.32346 
L 281.035533 250.413865 
L 282.353702 250.419666 
L 283.11898 251.246894 
L 283.287939 251.72258 
L 284.061511 251.976085 
L 285.181053 252.50224 
L 285.943227 252.50224 
L 288.226487 254.326668 
L 288.804134 254.535658 
L 290.152617 254.589562 
L 291.060386 256.0092 
L 291.949929 256.268644 
L 293.95955 256.383932 
L 294.815358 258.10788 
L 295.888193 258.10788 
L 296.61508 259.756597 
L 297.631061 259.845506 
L 297.69613 260.076326 
L 298.908932 261.241115 
L 300.729618 261.303735 
L 301.6262 261.338664 
L 302.647764 261.589513 
L 302.810216 261.439877 
L 303.482112 262.52345 
L 305.609875 263.050597 
L 306.443765 263.846714 
L 308.3805 264.040591 
L 308.477981 264.09822 
L 309.426809 264.09822 
L 310.297635 264.849302 
L 310.486133 264.827319 
L 312.338237 265.417194 
L 313.248052 265.445741 
L 318.188731 267.892102 
L 319.164741 268.458467 
L 320.223393 268.546093 
L 320.385862 268.679823 
L 321.005901 268.87431 
L 322.154494 269.032786 
L 322.336446 269.359384 
L 323.185932 270.10807 
L 324.131259 270.518875 
L 324.280738 270.338341 
L 324.877044 270.771129 
L 324.95504 270.99453 
L 326.189873 271.333067 
L 326.929224 271.903523 
L 327.137044 271.831041 
L 327.916605 272.650057 
L 329.053002 272.931682 
L 330.094168 273.773383 
L 330.791702 274.214812 
L 330.915175 274.47537 
L 332.761649 275.461059 
L 332.969604 275.741158 
L 333.642208 275.76198 
L 333.720334 276.102013 
L 334.767826 276.347641 
L 337.849326 278.366588 
L 338.767887 278.872393 
L 339.713523 279.41795 
L 340.461957 280.024587 
L 340.59685 279.949769 
L 341.575036 280.384618 
L 341.653012 280.599394 
L 342.678819 281.015023 
L 343.528796 281.988179 
L 344.302618 282.080858 
L 344.452068 282.494747 
L 346.858741 283.238853 
L 347.283958 283.598472 
L 348.502043 283.967617 
L 348.664556 284.158563 
L 349.484316 284.337632 
L 350.504325 284.748422 
L 351.40115 285.344754 
L 352.28548 285.43638 
L 352.421931 285.626944 
L 353.296048 286.186088 
L 356.300189 287.268288 
L 357.181085 287.716052 
L 357.304565 287.532495 
L 358.289635 288.096693 
L 361.120026 289.959575 
L 362.120826 290.265061 
L 363.043648 290.613383 
L 363.121635 291.031623 
L 364.02105 291.05524 
L 364.127471 290.422697 
L 365.103314 290.774836 
L 365.246316 291.25762 
L 366.114544 291.367122 
L 366.914445 293.574358 
L 367.092796 291.717948 
L 367.952405 293.958128 
L 368.063001 293.540926 
L 369.115467 292.758457 
L 369.206456 294.213541 
L 370.030345 293.959883 
L 370.160317 295.488 
L 370.873478 272.875458 
L 371.003449 233.791296 
L 371.799287 280.525919 
L 371.903266 275.274296 
L 372.766978 276.905213 
L 372.871069 267.888759 
L 373.836418 265.817298 
L 373.972839 273.667514 
L 374.928112 257.870892 
L 376.00187 230.069728 
L 376.170844 260.857559 
L 376.833472 208.554484 
L 377.782147 275.471577 
L 378.87533 266.601172 
L 378.979339 280.825238 
L 379.769462 282.242265 
L 379.918916 249.366959 
L 380.683985 233.925697 
L 381.753337 262.107302 
L 381.850819 270.070898 
L 382.579271 283.520066 
L 382.691274 274.025316 
L 383.801406 231.706874 
L 384.041908 165.956921 
L 384.566804 241.86873 
L 384.670787 216.778073 
L 385.498137 115.303891 
L 385.64113 174.612627 
L 386.691544 222.890464 
L 387.655224 206.720072 
L 387.908659 53.568 
L 388.611492 266.533208 
L 389.662662 234.125131 
L 389.857629 232.412388 
L 391.389403 291.798124 
L 391.47391 260.911493 
L 392.569596 151.84999 
L 392.719072 262.917158 
L 393.42056 281.121274 
L 393.557022 255.240073 
L 394.434085 290.980315 
L 395.462776 277.302402 
L 395.644723 272.175821 
L 396.272236 272.943223 
L 396.369598 263.853309 
L 397.320228 233.436349 
L 398.3767 290.942135 
L 398.487273 217.889492 
L 398.487273 217.889492 
" clip-path="url(#p1cabe2cf61)" style="fill: none; stroke: #ff7f0e; stroke-width: 1.5; stroke-linecap: square"/>
   </g>
   <g id="patch_3">
    <path d="M 57.6 307.584 
L 57.6 41.472 
" style="fill: none; stroke: #000000; stroke-width: 0.8; stroke-linejoin: miter; stroke-linecap: square"/>
   </g>
   <g id="patch_4">
    <path d="M 414.72 307.584 
L 414.72 41.472 
" style="fill: none; stroke: #000000; stroke-width: 0.8; stroke-linejoin: miter; stroke-linecap: square"/>
   </g>
   <g id="patch_5">
    <path d="M 57.6 307.584 
L 414.72 307.584 
" style="fill: none; stroke: #000000; stroke-width: 0.8; stroke-linejoin: miter; stroke-linecap: square"/>
   </g>
   <g id="patch_6">
    <path d="M 57.6 41.472 
L 414.72 41.472 
" style="fill: none; stroke: #000000; stroke-width: 0.8; stroke-linejoin: miter; stroke-linecap: square"/>
   </g>
   <g id="legend_1">
    <g id="patch_7">
     <path d="M 64.6 79.22825 
L 320.357813 79.22825 
Q 322.357813 79.22825 322.357813 77.22825 
L 322.357813 48.472 
Q 322.357813 46.472 320.357813 46.472 
L 64.6 46.472 
Q 62.6 46.472 62.6 48.472 
L 62.6 77.22825 
Q 62.6 79.22825 64.6 79.22825 
z
" style="fill: #ffffff; opacity: 0.8; stroke: #cccccc; stroke-linejoin: miter"/>
    </g>
    <g id="line2d_23">
     <path d="M 66.6 54.570438 
L 76.6 54.570438 
L 86.6 54.570438 
" style="fill: none; stroke: #1f77b4; stroke-width: 1.5; stroke-linecap: square"/>
    </g>
    <g id="text_13">
     <!-- Distancia a la deteción más cercana a la ROI -->
     <g transform="translate(94.6 58.070438)scale(0.1 -0.1)">
      <defs>
       <path id="DejaVuSans-6c" d="M 603 4863 
L 1178 4863 
L 1178 0 
L 603 0 
L 603 4863 
z
" transform="scale(0.015625)"/>
       <path id="DejaVuSans-64" d="M 2906 2969 
L 2906 4863 
L 3481 4863 
L 3481 0 
L 2906 0 
L 2906 525 
Q 2725 213 2448 61 
Q 2172 -91 1784 -91 
Q 1150 -91 751 415 
Q 353 922 353 1747 
Q 353 2572 751 3078 
Q 1150 3584 1784 3584 
Q 2172 3584 2448 3432 
Q 2725 3281 2906 2969 
z
M 947 1747 
Q 947 1113 1208 752 
Q 1469 391 1925 391 
Q 2381 391 2643 752 
Q 2906 1113 2906 1747 
Q 2906 2381 2643 2742 
Q 2381 3103 1925 3103 
Q 1469 3103 1208 2742 
Q 947 2381 947 1747 
z
" transform="scale(0.015625)"/>
       <path id="DejaVuSans-f3" d="M 1959 3097 
Q 1497 3097 1228 2736 
Q 959 2375 959 1747 
Q 959 1119 1226 758 
Q 1494 397 1959 397 
Q 2419 397 2687 759 
Q 2956 1122 2956 1747 
Q 2956 2369 2687 2733 
Q 2419 3097 1959 3097 
z
M 1959 3584 
Q 2709 3584 3137 3096 
Q 3566 2609 3566 1747 
Q 3566 888 3137 398 
Q 2709 -91 1959 -91 
Q 1206 -91 779 398 
Q 353 888 353 1747 
Q 353 2609 779 3096 
Q 1206 3584 1959 3584 
z
M 2394 5119 
L 3016 5119 
L 1998 3944 
L 1519 3944 
L 2394 5119 
z
" transform="scale(0.015625)"/>
       <path id="DejaVuSans-e1" d="M 2194 1759 
Q 1497 1759 1228 1600 
Q 959 1441 959 1056 
Q 959 750 1161 570 
Q 1363 391 1709 391 
Q 2188 391 2477 730 
Q 2766 1069 2766 1631 
L 2766 1759 
L 2194 1759 
z
M 3341 1997 
L 3341 0 
L 2766 0 
L 2766 531 
Q 2569 213 2275 61 
Q 1981 -91 1556 -91 
Q 1019 -91 701 211 
Q 384 513 384 1019 
Q 384 1609 779 1909 
Q 1175 2209 1959 2209 
L 2766 2209 
L 2766 2266 
Q 2766 2663 2505 2880 
Q 2244 3097 1772 3097 
Q 1472 3097 1187 3025 
Q 903 2953 641 2809 
L 641 3341 
Q 956 3463 1253 3523 
Q 1550 3584 1831 3584 
Q 2591 3584 2966 3190 
Q 3341 2797 3341 1997 
z
M 2290 5119 
L 2912 5119 
L 1894 3944 
L 1415 3944 
L 2290 5119 
z
" transform="scale(0.015625)"/>
       <path id="DejaVuSans-72" d="M 2631 2963 
Q 2534 3019 2420 3045 
Q 2306 3072 2169 3072 
Q 1681 3072 1420 2755 
Q 1159 2438 1159 1844 
L 1159 0 
L 581 0 
L 581 3500 
L 1159 3500 
L 1159 2956 
Q 1341 3275 1631 3429 
Q 1922 3584 2338 3584 
Q 2397 3584 2469 3576 
Q 2541 3569 2628 3553 
L 2631 2963 
z
" transform="scale(0.015625)"/>
       <path id="DejaVuSans-52" d="M 2841 2188 
Q 3044 2119 3236 1894 
Q 3428 1669 3622 1275 
L 4263 0 
L 3584 0 
L 2988 1197 
Q 2756 1666 2539 1819 
Q 2322 1972 1947 1972 
L 1259 1972 
L 1259 0 
L 628 0 
L 628 4666 
L 2053 4666 
Q 2853 4666 3247 4331 
Q 3641 3997 3641 3322 
Q 3641 2881 3436 2590 
Q 3231 2300 2841 2188 
z
M 1259 4147 
L 1259 2491 
L 2053 2491 
Q 2509 2491 2742 2702 
Q 2975 2913 2975 3322 
Q 2975 3731 2742 3939 
Q 2509 4147 2053 4147 
L 1259 4147 
z
" transform="scale(0.015625)"/>
       <path id="DejaVuSans-4f" d="M 2522 4238 
Q 1834 4238 1429 3725 
Q 1025 3213 1025 2328 
Q 1025 1447 1429 934 
Q 1834 422 2522 422 
Q 3209 422 3611 934 
Q 4013 1447 4013 2328 
Q 4013 3213 3611 3725 
Q 3209 4238 2522 4238 
z
M 2522 4750 
Q 3503 4750 4090 4092 
Q 4678 3434 4678 2328 
Q 4678 1225 4090 567 
Q 3503 -91 2522 -91 
Q 1538 -91 948 565 
Q 359 1222 359 2328 
Q 359 3434 948 4092 
Q 1538 4750 2522 4750 
z
" transform="scale(0.015625)"/>
       <path id="DejaVuSans-49" d="M 628 4666 
L 1259 4666 
L 1259 0 
L 628 0 
L 628 4666 
z
" transform="scale(0.015625)"/>
      </defs>
      <use xlink:href="#DejaVuSans-44"/>
      <use xlink:href="#DejaVuSans-69" x="77.001953"/>
      <use xlink:href="#DejaVuSans-73" x="104.785156"/>
      <use xlink:href="#DejaVuSans-74" x="156.884766"/>
      <use xlink:href="#DejaVuSans-61" x="196.09375"/>
      <use xlink:href="#DejaVuSans-6e" x="257.373047"/>
      <use xlink:href="#DejaVuSans-63" x="320.751953"/>
      <use xlink:href="#DejaVuSans-69" x="375.732422"/>
      <use xlink:href="#DejaVuSans-61" x="403.515625"/>
      <use xlink:href="#DejaVuSans-20" x="464.794922"/>
      <use xlink:href="#DejaVuSans-61" x="496.582031"/>
      <use xlink:href="#DejaVuSans-20" x="557.861328"/>
      <use xlink:href="#DejaVuSans-6c" x="589.648438"/>
      <use xlink:href="#DejaVuSans-61" x="617.431641"/>
      <use xlink:href="#DejaVuSans-20" x="678.710938"/>
      <use xlink:href="#DejaVuSans-64" x="710.498047"/>
      <use xlink:href="#DejaVuSans-65" x="773.974609"/>
      <use xlink:href="#DejaVuSans-74" x="835.498047"/>
      <use xlink:href="#DejaVuSans-65" x="874.707031"/>
      <use xlink:href="#DejaVuSans-63" x="936.230469"/>
      <use xlink:href="#DejaVuSans-69" x="991.210938"/>
      <use xlink:href="#DejaVuSans-f3" x="1018.994141"/>
      <use xlink:href="#DejaVuSans-6e" x="1080.175781"/>
      <use xlink:href="#DejaVuSans-20" x="1143.554688"/>
      <use xlink:href="#DejaVuSans-6d" x="1175.341797"/>
      <use xlink:href="#DejaVuSans-e1" x="1272.753906"/>
      <use xlink:href="#DejaVuSans-73" x="1334.033203"/>
      <use xlink:href="#DejaVuSans-20" x="1386.132812"/>
      <use xlink:href="#DejaVuSans-63" x="1417.919922"/>
      <use xlink:href="#DejaVuSans-65" x="1472.900391"/>
      <use xlink:href="#DejaVuSans-72" x="1534.423828"/>
      <use xlink:href="#DejaVuSans-63" x="1573.287109"/>
      <use xlink:href="#DejaVuSans-61" x="1628.267578"/>
      <use xlink:href="#DejaVuSans-6e" x="1689.546875"/>
      <use xlink:href="#DejaVuSans-61" x="1752.925781"/>
      <use xlink:href="#DejaVuSans-20" x="1814.205078"/>
      <use xlink:href="#DejaVuSans-61" x="1845.992188"/>
      <use xlink:href="#DejaVuSans-20" x="1907.271484"/>
      <use xlink:href="#DejaVuSans-6c" x="1939.058594"/>
      <use xlink:href="#DejaVuSans-61" x="1966.841797"/>
      <use xlink:href="#DejaVuSans-20" x="2028.121094"/>
      <use xlink:href="#DejaVuSans-52" x="2059.908203"/>
      <use xlink:href="#DejaVuSans-4f" x="2129.390625"/>
      <use xlink:href="#DejaVuSans-49" x="2208.101562"/>
     </g>
    </g>
    <g id="line2d_24">
     <path d="M 66.6 69.648563 
L 76.6 69.648563 
L 86.6 69.648563 
" style="fill: none; stroke: #ff7f0e; stroke-width: 1.5; stroke-linecap: square"/>
    </g>
    <g id="text_14">
     <!-- Distancia promedio al obstáculo en la ROI -->
     <g transform="translate(94.6 73.148563)scale(0.1 -0.1)">
      <defs>
       <path id="DejaVuSans-62" d="M 3116 1747 
Q 3116 2381 2855 2742 
Q 2594 3103 2138 3103 
Q 1681 3103 1420 2742 
Q 1159 2381 1159 1747 
Q 1159 1113 1420 752 
Q 1681 391 2138 391 
Q 2594 391 2855 752 
Q 3116 1113 3116 1747 
z
M 1159 2969 
Q 1341 3281 1617 3432 
Q 1894 3584 2278 3584 
Q 2916 3584 3314 3078 
Q 3713 2572 3713 1747 
Q 3713 922 3314 415 
Q 2916 -91 2278 -91 
Q 1894 -91 1617 61 
Q 1341 213 1159 525 
L 1159 0 
L 581 0 
L 581 4863 
L 1159 4863 
L 1159 2969 
z
" transform="scale(0.015625)"/>
       <path id="DejaVuSans-75" d="M 544 1381 
L 544 3500 
L 1119 3500 
L 1119 1403 
Q 1119 906 1312 657 
Q 1506 409 1894 409 
Q 2359 409 2629 706 
Q 2900 1003 2900 1516 
L 2900 3500 
L 3475 3500 
L 3475 0 
L 2900 0 
L 2900 538 
Q 2691 219 2414 64 
Q 2138 -91 1772 -91 
Q 1169 -91 856 284 
Q 544 659 544 1381 
z
M 1991 3584 
L 1991 3584 
z
" transform="scale(0.015625)"/>
      </defs>
      <use xlink:href="#DejaVuSans-44"/>
      <use xlink:href="#DejaVuSans-69" x="77.001953"/>
      <use xlink:href="#DejaVuSans-73" x="104.785156"/>
      <use xlink:href="#DejaVuSans-74" x="156.884766"/>
      <use xlink:href="#DejaVuSans-61" x="196.09375"/>
      <use xlink:href="#DejaVuSans-6e" x="257.373047"/>
      <use xlink:href="#DejaVuSans-63" x="320.751953"/>
      <use xlink:href="#DejaVuSans-69" x="375.732422"/>
      <use xlink:href="#DejaVuSans-61" x="403.515625"/>
      <use xlink:href="#DejaVuSans-20" x="464.794922"/>
      <use xlink:href="#DejaVuSans-70" x="496.582031"/>
      <use xlink:href="#DejaVuSans-72" x="560.058594"/>
      <use xlink:href="#DejaVuSans-6f" x="598.921875"/>
      <use xlink:href="#DejaVuSans-6d" x="660.103516"/>
      <use xlink:href="#DejaVuSans-65" x="757.515625"/>
      <use xlink:href="#DejaVuSans-64" x="819.039062"/>
      <use xlink:href="#DejaVuSans-69" x="882.515625"/>
      <use xlink:href="#DejaVuSans-6f" x="910.298828"/>
      <use xlink:href="#DejaVuSans-20" x="971.480469"/>
      <use xlink:href="#DejaVuSans-61" x="1003.267578"/>
      <use xlink:href="#DejaVuSans-6c" x="1064.546875"/>
      <use xlink:href="#DejaVuSans-20" x="1092.330078"/>
      <use xlink:href="#DejaVuSans-6f" x="1124.117188"/>
      <use xlink:href="#DejaVuSans-62" x="1185.298828"/>
      <use xlink:href="#DejaVuSans-73" x="1248.775391"/>
      <use xlink:href="#DejaVuSans-74" x="1300.875"/>
      <use xlink:href="#DejaVuSans-e1" x="1340.083984"/>
      <use xlink:href="#DejaVuSans-63" x="1401.363281"/>
      <use xlink:href="#DejaVuSans-75" x="1456.34375"/>
      <use xlink:href="#DejaVuSans-6c" x="1519.722656"/>
      <use xlink:href="#DejaVuSans-6f" x="1547.505859"/>
      <use xlink:href="#DejaVuSans-20" x="1608.6875"/>
      <use xlink:href="#DejaVuSans-65" x="1640.474609"/>
      <use xlink:href="#DejaVuSans-6e" x="1701.998047"/>
      <use xlink:href="#DejaVuSans-20" x="1765.376953"/>
      <use xlink:href="#DejaVuSans-6c" x="1797.164062"/>
      <use xlink:href="#DejaVuSans-61" x="1824.947266"/>
      <use xlink:href="#DejaVuSans-20" x="1886.226562"/>
      <use xlink:href="#DejaVuSans-52" x="1918.013672"/>
      <use xlink:href="#DejaVuSans-4f" x="1987.496094"/>
      <use xlink:href="#DejaVuSans-49" x="2066.207031"/>
     </g>
    </g>
   </g>
  </g>
 </g>
 <defs>
  <clipPath id="p1cabe2cf61">
   <rect x="57.6" y="41.472" width="357.12" height="266.112"/>
  </clipPath>
 </defs>
</svg>
